<svg xmlns="http://www.w3.org/2000/svg" width="600" height="180" xmlns:v="https://vecta.io/nano"><path fill="#0095dd" d="M32.642 137.769c-.29 0-.584-.037-.878-.115-1.803-.483-2.874-2.339-2.391-4.143 5.588-20.861 4.52-76.673 4.507-77.235a3.38 3.38 0 0 1 3.312-3.447c.024-.002.047-.002.069-.002a3.38 3.38 0 0 1 3.38 3.313c.047 2.33 1.098 57.343-4.736 79.123-.404 1.509-1.771 2.506-3.263 2.506z"/><path fill="#7658b1" d="M81.38 95.724c-6.801 0-12.528-2.802-12.898-2.988a3.38 3.38 0 0 1-1.512-4.535c.833-1.666 2.857-2.346 4.531-1.516.202.1 10.645 5.109 17.663-.076a3.38 3.38 0 1 1 4.021 5.436c-3.761 2.78-7.956 3.679-11.805 3.679z"/><path fill="#ff8a12" d="M94.777 128.508c-2.703 0-5.762-.164-9.202-.374-1.864-.115-3.283-1.719-3.169-3.584a3.38 3.38 0 0 1 3.582-3.168c7.087.435 15.118.93 17.05-1.426 1.409-1.717 1.111-6.42-.885-13.976-4.895-18.536-.638-24.781 3.736-29.178.305-.305.591-.589.835-.869 2.956-3.375 12.538-8.599 14.429-9.611a3.38 3.38 0 0 1 4.578 1.383c.882 1.646.263 3.694-1.383 4.578-4.254 2.279-10.954 6.302-12.534 8.104-.331.38-.714.77-1.129 1.187-2.512 2.524-6.308 6.339-1.993 22.68 2.763 10.463 2.64 16.256-.425 19.992-2.751 3.353-7.142 4.262-13.49 4.262z"/><path fill="#db0012" d="M88.057 177.478c-8.355 0-16.55-3.729-22.275-10.48-13.473-15.891-23.323-15.743-23.438-15.757-1.866.125-3.422-1.369-3.514-3.21s1.274-3.413 3.112-3.54c1.32-.077 13.325-.353 28.997 18.132 5.944 7.011 14.883 9.756 23.33 7.161 16.455-5.053 28.105-28.475 31.959-64.258 3.407-31.626 5.423-63.963-10.214-81.373-9.299-10.357-24.455-15.389-46.333-15.389-46.979 0-56.653 30.618-58.631 43.782-2.979 19.822 4.653 40.358 16.33 43.949a3.38 3.38 0 0 1 2.238 4.227c-.549 1.783-2.44 2.782-4.226 2.236C10.493 98.377.863 74.831 4.362 51.541 9.024 20.52 33.442 2 69.681 2c23.908 0 40.708 5.769 51.364 17.634 17.497 19.482 15.477 53.472 11.908 86.616-5.693 52.847-25.438 66.539-36.699 69.998-2.695.827-5.454 1.23-8.197 1.23z"/><path d="M253.064 106.104c0 10.653-2.154 20.261-6.462 28.827s-10.094 15.247-17.351 20.053c-5.902 3.709-11.895 6.188-17.977 7.441s-13.854 1.88-23.304 1.88h-26.869V47.669h26.555c10.967 0 19.57.823 25.811 2.468s11.554 3.904 15.94 6.775c7.521 4.963 13.343 11.555 17.469 19.779s6.188 18.028 6.188 29.413zm-16.136-.234c0-8.98-1.489-16.646-4.466-22.991s-7.39-11.291-13.238-14.843c-4.126-2.507-8.539-4.309-13.238-5.405s-10.55-1.645-17.547-1.645h-11.828v90.003h11.828c6.894 0 12.925-.548 18.096-1.645s9.895-3.134 14.177-6.11c5.377-3.654 9.425-8.526 12.142-14.608s4.074-13.67 4.074-22.756zm78.175-13.237h-.783c-1.097-.314-2.26-.511-3.486-.589l-4.426-.117c-3.969 0-7.911.862-11.828 2.586s-7.625 4.28-11.123 7.676v62.117H268.73V76.809h14.726v13.003c5.377-4.75 10.066-8.107 14.062-10.065s7.872-2.938 11.632-2.938c1.514 0 2.649.04 3.408.118s1.605.196 2.545.353v15.353zm82.641 27.964c0 14.726-3.552 26.096-10.653 34.113s-16.555 12.024-28.355 12.024c-12.17 0-21.738-4.14-28.71-12.416s-10.457-19.517-10.457-33.722c0-14.62 3.59-25.979 10.77-34.074s16.647-12.142 28.397-12.142c11.801 0 21.254 4.033 28.355 12.102s10.653 19.439 10.653 34.115zm-15.196 0c0-11.331-2.063-19.752-6.188-25.263s-10-8.264-17.624-8.264c-7.677 0-13.591 2.754-17.743 8.264s-6.228 13.932-6.228 25.263c0 10.966 2.076 19.281 6.228 24.948s10.066 8.499 17.743 8.499c7.57 0 13.434-2.781 17.585-8.343s6.227-13.93 6.227-25.104zm102.303 0c0 14.726-3.554 26.096-10.653 34.113s-16.557 12.024-28.356 12.024c-12.169 0-21.738-4.14-28.709-12.416s-10.457-19.517-10.457-33.722c0-14.62 3.59-25.979 10.771-34.074s16.646-12.142 28.396-12.142c11.8 0 21.253 4.033 28.356 12.102s10.652 19.439 10.652 34.115zm-15.198 0c0-11.331-2.064-19.752-6.188-25.263s-10.001-8.264-17.624-8.264c-7.678 0-13.592 2.754-17.742 8.264s-6.229 13.932-6.229 25.263c0 10.966 2.076 19.281 6.229 24.948s10.064 8.499 17.742 8.499c7.57 0 13.434-2.781 17.586-8.343s6.226-13.93 6.226-25.104zm45.355 43.709h-14.727V42.421h14.727v121.885zm45.275 2.115c-5.85 0-11.318-.783-16.41-2.35s-9.31-3.239-12.65-5.015v-16.527h.783c1.254.991 2.728 2.088 4.426 3.29s3.956 2.456 6.776 3.76c2.506 1.147 5.26 2.166 8.263 3.055s6.122 1.332 9.361 1.332c2.351 0 4.856-.274 7.52-.823s4.647-1.241 5.954-2.074c1.826-1.203 3.145-2.48 3.956-3.84s1.213-3.396 1.213-6.108c0-3.498-.953-6.138-2.858-7.912s-5.287-3.263-10.145-4.465c-1.88-.47-4.336-1.019-7.363-1.646s-5.824-1.304-8.381-2.036c-6.687-1.932-11.543-4.923-14.57-8.969s-4.543-8.941-4.543-14.688c0-7.884 2.977-14.308 8.93-19.27s13.865-7.441 23.735-7.441c4.855 0 9.738.599 14.647 1.802s9.033 2.713 12.376 4.543v15.744h-.782c-3.761-2.977-7.952-5.326-12.573-7.05s-9.281-2.584-13.982-2.584c-4.856 0-8.957 1.018-12.298 3.055s-5.014 5.119-5.014 9.243c0 3.654.991 6.384 2.978 8.186s5.169 3.278 9.556 4.426c2.194.575 4.634 1.136 7.325 1.684s5.521 1.188 8.499 1.92c6.474 1.617 11.344 4.309 14.608 8.068s4.896 8.879 4.896 15.353c0 3.76-.743 7.324-2.232 10.692s-3.67 6.254-6.541 8.655c-3.133 2.612-6.671 4.594-10.614 5.953s-8.892 2.037-14.846 2.037z" fill="#747474"/></svg>